<svg xmlns="http://www.w3.org/2000/svg" viewBox="0 0 225 230"><path fill="white" fill-rule="evenodd" d="M89.000 16.000 C85.833 17.000 77.833 20.000 74.000 22.000 C70.167 24.000 68.833 25.167 66.000 28.000 C63.167 30.833 59.167 35.500 57.000 39.000 C54.833 42.500 53.000 49.000 53.000 49.000 C53.000 49.000 51.500 50.500 50.000 51.000 C48.500 51.500 46.833 50.833 44.000 52.000 C41.167 53.167 36.667 55.167 33.000 58.000 C29.333 60.833 24.667 65.833 22.000 69.000 C19.333 72.167 18.500 73.667 17.000 77.000 C15.500 80.333 13.667 86.167 13.000 89.000 C12.333 91.833 13.000 94.000 13.000 94.000 C13.000 94.000 12.000 95.000 12.000 95.000 C12.000 95.000 12.000 101.000 12.000 101.000 C12.000 101.000 13.000 102.000 13.000 102.000 C13.000 102.000 12.000 103.000 12.000 103.000 C12.000 103.000 13.000 104.000 13.000 104.000 C13.000 104.000 13.000 109.000 13.000 109.000 C13.000 109.000 14.000 110.000 14.000 110.000 C14.000 110.000 13.667 111.500 14.000 113.000 C14.333 114.500 15.167 117.000 16.000 119.000 C16.833 121.000 17.500 122.667 19.000 125.000 C20.500 127.333 25.000 133.000 25.000 133.000 C25.000 133.000 24.000 141.000 24.000 141.000 C24.000 141.000 23.000 142.000 23.000 142.000 C23.000 142.000 23.000 156.000 23.000 156.000 C23.000 156.000 24.000 157.000 24.000 157.000 C24.000 157.000 23.333 158.833 24.000 161.000 C24.667 163.167 27.333 168.167 28.000 170.000 C28.667 171.833 28.000 172.000 28.000 172.000 C28.000 172.000 30.833 177.333 33.000 180.000 C35.167 182.667 37.833 185.500 41.000 188.000 C44.167 190.500 52.000 195.000 52.000 195.000 C52.000 195.000 54.000 195.000 54.000 195.000 C54.000 195.000 55.333 196.500 57.000 197.000 C58.667 197.500 64.000 198.000 64.000 198.000 C64.000 198.000 65.000 199.000 65.000 199.000 C65.000 199.000 78.833 199.167 82.000 199.000 C85.167 198.833 84.000 198.000 84.000 198.000 C84.000 198.000 88.833 203.167 91.000 205.000 C93.167 206.833 93.833 207.500 97.000 209.000 C100.167 210.500 107.167 213.167 110.000 214.000 C112.833 214.833 114.000 214.000 114.000 214.000 C114.000 214.000 115.000 215.000 115.000 215.000 C115.000 215.000 127.000 215.000 127.000 215.000 C127.000 215.000 128.000 214.000 128.000 214.000 C128.000 214.000 129.667 215.000 133.000 214.000 C136.333 213.000 144.167 210.000 148.000 208.000 C151.833 206.000 154.333 203.500 156.000 202.000 C157.667 200.500 157.333 199.667 158.000 199.000 C158.667 198.333 158.667 199.667 160.000 198.000 C161.333 196.333 164.500 191.833 166.000 189.000 C167.500 186.167 168.167 182.667 169.000 181.000 C169.833 179.333 171.000 179.000 171.000 179.000 C171.000 179.000 173.833 179.333 177.000 178.000 C180.167 176.667 185.833 174.333 190.000 171.000 C194.167 167.667 199.167 161.833 202.000 158.000 C204.833 154.167 206.000 150.667 207.000 148.000 C208.000 145.333 208.000 142.000 208.000 142.000 C208.000 142.000 209.000 141.000 209.000 141.000 C209.000 141.000 210.000 128.000 210.000 128.000 C210.000 128.000 209.000 127.000 209.000 127.000 C209.000 127.000 208.500 118.333 208.000 116.000 C207.500 113.667 206.000 113.000 206.000 113.000 C206.000 113.000 206.500 112.333 206.000 111.000 C205.500 109.667 204.500 107.333 203.000 105.000 C201.500 102.667 197.000 97.000 197.000 97.000 C197.000 97.000 196.667 95.333 197.000 94.000 C197.333 92.667 198.667 92.500 199.000 89.000 C199.333 85.500 199.000 73.000 199.000 73.000 C199.000 73.000 198.000 72.000 198.000 72.000 C198.000 72.000 198.500 71.000 198.000 69.000 C197.500 67.000 196.500 63.167 195.000 60.000 C193.500 56.833 191.500 53.167 189.000 50.000 C186.500 46.833 182.500 43.167 180.000 41.000 C177.500 38.833 176.500 38.333 174.000 37.000 C171.500 35.667 167.000 33.667 165.000 33.000 C163.000 32.333 163.333 33.333 162.000 33.000 C160.667 32.667 160.667 31.333 157.000 31.000 C153.333 30.667 140.000 31.000 140.000 31.000 C140.000 31.000 139.000 32.000 139.000 32.000 C139.000 32.000 131.500 24.667 127.000 22.000 C122.500 19.333 115.333 17.000 112.000 16.000 C108.667 15.000 107.000 16.000 107.000 16.000 C107.000 16.000 106.000 15.000 106.000 15.000 C106.000 15.000 94.000 15.000 94.000 15.000 C94.000 15.000 93.000 16.000 93.000 16.000 C93.000 16.000 92.167 15.000 89.000 16.000 Z M133.000 139.000 C133.000 139.000 133.000 158.000 133.000 158.000 C133.000 158.000 122.833 163.500 117.000 167.000 C111.167 170.500 102.000 176.667 98.000 179.000 C94.000 181.333 94.167 180.333 93.000 181.000 C91.833 181.667 91.000 183.000 91.000 183.000 C91.000 183.000 90.333 182.500 89.000 183.000 C87.667 183.500 84.667 185.500 83.000 186.000 C81.333 186.500 79.000 186.000 79.000 186.000 C79.000 186.000 78.000 187.000 78.000 187.000 C78.000 187.000 68.000 187.000 68.000 187.000 C68.000 187.000 67.000 186.000 67.000 186.000 C67.000 186.000 65.667 187.000 63.000 186.000 C60.333 185.000 54.500 182.500 51.000 180.000 C47.500 177.500 43.667 173.000 42.000 171.000 C40.333 169.000 41.500 168.833 41.000 168.000 C40.500 167.167 39.833 167.667 39.000 166.000 C38.167 164.333 36.500 160.000 36.000 158.000 C35.500 156.000 36.000 154.000 36.000 154.000 C36.000 154.000 35.000 153.000 35.000 153.000 C35.000 153.000 34.833 147.500 35.000 146.000 C35.167 144.500 36.000 144.000 36.000 144.000 C36.000 144.000 38.000 143.000 38.000 143.000 C38.000 143.000 46.833 147.667 49.000 149.000 C51.167 150.333 49.833 150.333 51.000 151.000 C52.167 151.667 54.000 151.833 56.000 153.000 C58.000 154.167 61.000 156.833 63.000 158.000 C65.000 159.167 66.000 158.833 68.000 160.000 C70.000 161.167 73.167 163.833 75.000 165.000 C76.833 166.167 77.833 166.667 79.000 167.000 C80.167 167.333 79.333 168.167 82.000 167.000 C84.667 165.833 92.500 161.500 95.000 160.000 C97.500 158.500 95.833 158.667 97.000 158.000 C98.167 157.333 100.000 157.167 102.000 156.000 C104.000 154.833 107.000 152.167 109.000 151.000 C111.000 149.833 112.833 149.667 114.000 149.000 C115.167 148.333 114.833 147.667 116.000 147.000 C117.167 146.333 119.000 146.167 121.000 145.000 C123.000 143.833 126.167 141.167 128.000 140.000 C129.833 138.833 132.000 138.000 132.000 138.000 C132.000 138.000 133.000 139.000 133.000 139.000 Z M143.000 108.000 C143.000 108.000 153.333 113.333 156.000 115.000 C158.667 116.667 159.000 118.000 159.000 118.000 C159.000 118.000 159.000 173.000 159.000 173.000 C159.000 173.000 158.000 174.000 158.000 174.000 C158.000 174.000 159.167 174.500 158.000 177.000 C156.833 179.500 153.000 186.167 151.000 189.000 C149.000 191.833 148.833 192.000 146.000 194.000 C143.167 196.000 137.333 199.667 134.000 201.000 C130.667 202.333 126.000 202.000 126.000 202.000 C126.000 202.000 125.000 203.000 125.000 203.000 C125.000 203.000 116.000 203.000 112.000 202.000 C108.000 201.000 103.333 198.500 101.000 197.000 C98.667 195.500 98.000 193.000 98.000 193.000 C98.000 193.000 130.833 174.333 138.000 170.000 C145.167 165.667 141.000 167.000 141.000 167.000 C141.000 167.000 141.000 112.000 141.000 112.000 C141.000 112.000 142.000 111.000 142.000 111.000 C142.000 111.000 141.000 110.000 141.000 110.000 C141.000 110.000 143.000 108.000 143.000 108.000 Z M110.000 90.000 C113.167 88.500 113.000 90.000 113.000 90.000 C113.000 90.000 113.833 91.333 115.000 92.000 C116.167 92.667 118.833 93.333 120.000 94.000 C121.167 94.667 119.833 94.667 122.000 96.000 C124.167 97.333 133.000 102.000 133.000 102.000 C133.000 102.000 133.000 127.000 133.000 127.000 C133.000 127.000 133.500 127.833 130.000 130.000 C126.500 132.167 112.000 140.000 112.000 140.000 C112.000 140.000 108.000 139.000 108.000 139.000 C108.000 139.000 108.333 138.333 106.000 137.000 C103.667 135.667 96.833 132.667 94.000 131.000 C91.167 129.333 89.000 127.000 89.000 127.000 C89.000 127.000 89.000 103.000 89.000 103.000 C89.000 103.000 90.500 101.167 94.000 99.000 C97.500 96.833 106.833 91.500 110.000 90.000 Z M136.000 75.000 C138.833 73.667 137.833 74.667 139.000 75.000 C140.167 75.333 142.000 76.333 143.000 77.000 C144.000 77.667 143.833 78.333 145.000 79.000 C146.167 79.667 148.833 80.333 150.000 81.000 C151.167 81.667 150.833 82.333 152.000 83.000 C153.167 83.667 155.833 84.333 157.000 85.000 C158.167 85.667 154.833 84.500 159.000 87.000 C163.167 89.500 176.833 96.500 182.000 100.000 C187.167 103.500 187.667 104.833 190.000 108.000 C192.333 111.167 195.000 116.500 196.000 119.000 C197.000 121.500 196.000 123.000 196.000 123.000 C196.000 123.000 197.000 124.000 197.000 124.000 C197.000 124.000 197.000 138.000 197.000 138.000 C197.000 138.000 196.000 139.000 196.000 139.000 C196.000 139.000 196.500 142.000 195.000 145.000 C193.500 148.000 189.500 154.000 187.000 157.000 C184.500 160.000 182.167 161.500 180.000 163.000 C177.833 164.500 174.000 166.000 174.000 166.000 C174.000 166.000 172.000 165.000 172.000 165.000 C172.000 165.000 172.000 117.000 172.000 117.000 C172.000 117.000 173.167 115.667 169.000 113.000 C164.833 110.333 151.000 103.333 147.000 101.000 C143.000 98.667 146.167 99.667 145.000 99.000 C143.833 98.333 144.000 99.333 140.000 97.000 C136.000 94.667 121.000 85.000 121.000 85.000 C121.000 85.000 122.000 83.000 122.000 83.000 C122.000 83.000 133.167 76.333 136.000 75.000 Z M46.000 65.000 C47.500 64.167 49.000 64.000 49.000 64.000 C49.000 64.000 50.000 65.000 50.000 65.000 C50.000 65.000 50.000 113.000 50.000 113.000 C50.000 113.000 49.667 114.833 53.000 117.000 C56.333 119.167 66.833 124.167 70.000 126.000 C73.167 127.833 68.000 125.667 72.000 128.000 C76.000 130.333 89.167 137.167 94.000 140.000 C98.833 142.833 101.000 145.000 101.000 145.000 C101.000 145.000 101.500 146.333 99.000 148.000 C96.500 149.667 86.000 155.000 86.000 155.000 C86.000 155.000 81.000 154.000 81.000 154.000 C81.000 154.000 80.167 152.667 79.000 152.000 C77.833 151.333 75.167 150.667 74.000 150.000 C72.833 149.333 73.167 148.667 72.000 148.000 C70.833 147.333 69.000 147.167 67.000 146.000 C65.000 144.833 62.000 142.167 60.000 141.000 C58.000 139.833 56.167 139.667 55.000 139.000 C53.833 138.333 55.500 138.500 53.000 137.000 C50.500 135.500 43.500 132.500 40.000 130.000 C36.500 127.500 34.167 124.833 32.000 122.000 C29.833 119.167 28.000 115.500 27.000 113.000 C26.000 110.500 26.000 107.000 26.000 107.000 C26.000 107.000 25.000 106.000 25.000 106.000 C25.000 106.000 24.500 95.833 25.000 92.000 C25.500 88.167 27.167 84.833 28.000 83.000 C28.833 81.167 29.500 81.833 30.000 81.000 C30.500 80.167 29.333 80.000 31.000 78.000 C32.667 76.000 37.500 71.167 40.000 69.000 C42.500 66.833 44.500 65.833 46.000 65.000 Z M187.000 77.000 C187.833 81.000 187.000 86.000 187.000 86.000 C187.000 86.000 185.000 88.000 185.000 88.000 C185.000 88.000 186.167 87.833 183.000 86.000 C179.833 84.167 172.667 80.833 166.000 77.000 C159.333 73.167 143.000 63.000 143.000 63.000 C143.000 63.000 142.667 61.833 140.000 63.000 C137.333 64.167 130.333 68.000 127.000 70.000 C123.667 72.000 122.000 73.833 120.000 75.000 C118.000 76.167 116.167 76.333 115.000 77.000 C113.833 77.667 114.167 78.333 113.000 79.000 C111.833 79.667 109.167 80.333 108.000 81.000 C106.833 81.667 107.167 82.333 106.000 83.000 C104.833 83.667 102.167 84.333 101.000 85.000 C99.833 85.667 100.167 86.333 99.000 87.000 C97.833 87.667 95.500 88.167 94.000 89.000 C92.500 89.833 90.000 92.000 90.000 92.000 C90.000 92.000 89.000 91.000 89.000 91.000 C89.000 91.000 89.000 72.000 89.000 72.000 C89.000 72.000 89.833 70.667 91.000 70.000 C92.167 69.333 94.833 68.667 96.000 68.000 C97.167 67.333 93.667 68.500 98.000 66.000 C102.333 63.500 117.667 55.500 122.000 53.000 C126.333 50.500 122.833 51.667 124.000 51.000 C125.167 50.333 127.833 49.667 129.000 49.000 C130.167 48.333 128.667 48.000 131.000 47.000 C133.333 46.000 139.167 43.667 143.000 43.000 C146.833 42.333 154.000 43.000 154.000 43.000 C154.000 43.000 155.000 44.000 155.000 44.000 C155.000 44.000 156.333 43.000 159.000 44.000 C161.667 45.000 167.167 47.000 171.000 50.000 C174.833 53.000 179.333 57.500 182.000 62.000 C184.667 66.500 186.167 73.000 187.000 77.000 Z M115.000 30.000 C117.000 30.833 119.500 31.833 121.000 33.000 C122.500 34.167 124.000 37.000 124.000 37.000 C124.000 37.000 111.833 44.833 108.000 47.000 C104.167 49.167 103.333 48.667 101.000 50.000 C98.667 51.333 96.833 53.333 94.000 55.000 C91.167 56.667 86.167 58.667 84.000 60.000 C81.833 61.333 81.667 62.000 81.000 63.000 C80.333 64.000 80.167 56.333 80.000 66.000 C79.833 75.667 80.000 121.000 80.000 121.000 C80.000 121.000 79.000 122.000 79.000 122.000 C79.000 122.000 68.833 116.833 66.000 115.000 C63.167 113.167 62.000 111.000 62.000 111.000 C62.000 111.000 62.000 64.000 62.000 64.000 C62.000 64.000 63.000 63.000 63.000 63.000 C63.000 63.000 63.000 58.000 63.000 58.000 C63.000 58.000 64.000 57.000 64.000 57.000 C64.000 57.000 63.667 53.833 65.000 51.000 C66.333 48.167 69.500 43.000 72.000 40.000 C74.500 37.000 77.667 34.667 80.000 33.000 C82.333 31.333 84.000 30.833 86.000 30.000 C88.000 29.167 90.000 28.333 92.000 28.000 C94.000 27.667 98.000 28.000 98.000 28.000 C98.000 28.000 99.000 27.000 99.000 27.000 C99.000 27.000 106.333 27.500 109.000 28.000 C111.667 28.500 113.000 29.167 115.000 30.000 Z"/></svg>
